<?xml version="1.0" encoding="UTF-8" standalone="no"?>
<!-- Created with Inkscape (http://www.inkscape.org/) -->

<svg
   xmlns:dc="http://purl.org/dc/elements/1.1/"
   xmlns:cc="http://creativecommons.org/ns#"
   xmlns:rdf="http://www.w3.org/1999/02/22-rdf-syntax-ns#"
   xmlns:svg="http://www.w3.org/2000/svg"
   xmlns="http://www.w3.org/2000/svg"
   xmlns:sodipodi="http://sodipodi.sourceforge.net/DTD/sodipodi-0.dtd"
   xmlns:inkscape="http://www.inkscape.org/namespaces/inkscape"
   width="297mm"
   height="210mm"
   id="svg6334"
   version="1.1"
   inkscape:version="0.48.4 r9939"
   sodipodi:docname="package_concept_model_marked.svg"
   inkscape:export-filename="C:\Users\rbierig.INTERN\git\mucke\MUCKE\doc\systemarchitecture\package_concept_model_marked.png"
   inkscape:export-xdpi="200"
   inkscape:export-ydpi="200">
  <defs
     id="defs6336">
    <marker
       inkscape:stockid="EmptyDiamondL"
       orient="auto"
       refY="0.0"
       refX="0.0"
       id="EmptyDiamondL"
       style="overflow:visible">
      <path
         id="path4263"
         d="M 0,-7.0710768 L -7.0710894,0 L 0,7.0710589 L 7.0710462,0 L 0,-7.0710768 z "
         style="fill-rule:evenodd;fill:#FFFFFF;stroke:#000000;stroke-width:1.0pt"
         transform="scale(0.8)" />
    </marker>
    <marker
       inkscape:stockid="EmptyTriangleInL"
       orient="auto"
       refY="0.0"
       refX="0.0"
       id="EmptyTriangleInL"
       style="overflow:visible">
      <path
         id="path4308"
         d="M 5.77,0.0 L -2.88,5.0 L -2.88,-5.0 L 5.77,0.0 z "
         style="fill-rule:evenodd;fill:#FFFFFF;stroke:#000000;stroke-width:1.0pt"
         transform="scale(-0.8) translate(-6,0)" />
    </marker>
    <marker
       inkscape:stockid="EmptyTriangleOutL"
       orient="auto"
       refY="0.0"
       refX="0.0"
       id="EmptyTriangleOutL"
       style="overflow:visible">
      <path
         id="path4317"
         d="M 5.77,0.0 L -2.88,5.0 L -2.88,-5.0 L 5.77,0.0 z "
         style="fill-rule:evenodd;fill:#FFFFFF;stroke:#000000;stroke-width:1.0pt"
         transform="scale(0.8) translate(-6,0)" />
    </marker>
    <marker
       inkscape:stockid="EmptyDiamondLend"
       orient="auto"
       refY="0.0"
       refX="0.0"
       id="EmptyDiamondLend"
       style="overflow:visible">
      <path
         id="path4281"
         d="M 0,-7.0710768 L -7.0710894,0 L 0,7.0710589 L 7.0710462,0 L 0,-7.0710768 z "
         style="fill-rule:evenodd;fill:#FFFFFF;stroke:#000000;stroke-width:1.0pt"
         transform="scale(0.8) translate(-7,0)" />
    </marker>
    <marker
       inkscape:stockid="EmptyDiamondLstart"
       orient="auto"
       refY="0.0"
       refX="0.0"
       id="EmptyDiamondLstart"
       style="overflow:visible">
      <path
         id="path4272"
         d="M 0,-7.0710768 L -7.0710894,0 L 0,7.0710589 L 7.0710462,0 L 0,-7.0710768 z "
         style="fill-rule:evenodd;fill:#FFFFFF;stroke:#000000;stroke-width:1.0pt"
         transform="scale(0.8) translate(7,0)" />
    </marker>
    <marker
       inkscape:stockid="Arrow1Lstart"
       orient="auto"
       refY="0.0"
       refX="0.0"
       id="Arrow1Lstart"
       style="overflow:visible">
      <path
         id="path4319"
         d="M 0.0,0.0 L 5.0,-5.0 L -12.5,0.0 L 5.0,5.0 L 0.0,0.0 z "
         style="fill-rule:evenodd;stroke:#000000;stroke-width:1.0pt"
         transform="scale(0.8) translate(12.5,0)" />
    </marker>
  </defs>
  <sodipodi:namedview
     inkscape:document-units="mm"
     pagecolor="#ffffff"
     bordercolor="#666666"
     borderopacity="1.0"
     inkscape:pageopacity="0.0"
     inkscape:pageshadow="2"
     inkscape:zoom="0.6841751"
     inkscape:cx="385.32986"
     inkscape:cy="357.8152"
     inkscape:current-layer="layer1"
     id="namedview6338"
     showgrid="false"
     inkscape:window-width="1600"
     inkscape:window-height="838"
     inkscape:window-x="-8"
     inkscape:window-y="-8"
     inkscape:window-maximized="1" />
  <metadata
     id="metadata6340">
    <rdf:RDF>
      <cc:Work
         rdf:about="">
        <dc:format>image/svg+xml</dc:format>
        <dc:type
           rdf:resource="http://purl.org/dc/dcmitype/StillImage" />
        <dc:title></dc:title>
      </cc:Work>
    </rdf:RDF>
  </metadata>
  <g
     inkscape:label="Layer 1"
     inkscape:groupmode="layer"
     id="layer1">
    <path
       inkscape:connector-curvature="0"
       id="path259"
       d="m 105.7054,16.434758 846.6216,0 c 45.80611,0 82.9449,36.3703 82.9449,81.317068 l 0,543.490594 c 0,44.9071 -37.13879,81.31712 -82.9449,81.31712 l -846.6216,0 c -45.846584,0 -82.944984,-36.41002 -82.944984,-81.31712 l 0,-543.490594 c 0,-44.946768 37.0984,-81.317068 82.944984,-81.317068"
       style="fill:none;stroke:#000000;stroke-width:5.13328362;stroke-linecap:butt;stroke-linejoin:round;stroke-miterlimit:10;stroke-opacity:1;stroke-dasharray:none" />
    <text
       xml:space="preserve"
       style="font-size:53.38103485px;font-style:normal;font-variant:normal;font-weight:normal;font-stretch:normal;text-align:center;writing-mode:lr-tb;text-anchor:middle;fill:#000000;fill-opacity:1;stroke:#000000;stroke-width:1.53485966;stroke-linecap:round;stroke-linejoin:round;stroke-miterlimit:21.20000076;stroke-opacity:1;stroke-dasharray:none;stroke-dashoffset:0;font-family:Verdana;-inkscape-font-specification:Verdana"
       x="226.19135"
       y="62.592396"
       id="text3672-8"
       transform="scale(0.96980089,1.0311395)"><tspan
         sodipodi:role="line"
         x="226.19135"
         y="62.592396"
         id="tspan3676-45"
         style="font-size:40px;font-style:normal;font-variant:normal;font-weight:normal;font-stretch:normal;text-align:center;line-height:100%;writing-mode:lr-tb;text-anchor:middle;fill:#000000;fill-opacity:1;stroke:#000000;stroke-width:1.53485966;stroke-miterlimit:21.20000076;stroke-opacity:1;stroke-dasharray:none;font-family:Verdana;-inkscape-font-specification:Verdana">concept.model</tspan></text>
    <rect
       style="fill:none;stroke:#000000;stroke-width:2.02212119;stroke-miterlimit:10;stroke-opacity:1;stroke-dasharray:none"
       id="rect6967"
       width="188.423"
       height="72.726807"
       x="130.5002"
       y="273.02759" />
    <text
       xml:space="preserve"
       style="font-size:10.03606796px;font-style:normal;font-weight:normal;line-height:125%;letter-spacing:0px;word-spacing:0px;fill:#000000;fill-opacity:1;stroke:none;font-family:Sans"
       x="168.89479"
       y="314.5921"
       id="text6969"
       sodipodi:linespacing="125%"
       transform="scale(1.0714209,0.93334002)"><tspan
         sodipodi:role="line"
         id="tspan6971"
         x="168.89479"
         y="314.5921"
         style="font-size:20.07213593px">Field</tspan></text>
    <path
       style="fill:none;stroke:#000000;stroke-width:2.29992938;stroke-linecap:butt;stroke-linejoin:miter;stroke-miterlimit:4;stroke-opacity:1;stroke-dasharray:none"
       d="m 131.19633,298.90178 c 184.57727,0 185.17849,0 185.17849,0 l 0,2.78828"
       id="path6973"
       inkscape:connector-curvature="0" />
    <rect
       style="fill:none;stroke:#000000;stroke-width:2.56139922;stroke-miterlimit:10;stroke-opacity:1;stroke-dasharray:none"
       id="rect6967-8"
       width="227.6317"
       height="96.590805"
       x="265.92981"
       y="86.634773" />
    <text
       xml:space="preserve"
       style="font-size:11.94338989px;font-style:normal;font-weight:normal;line-height:125%;letter-spacing:0px;word-spacing:0px;fill:#000000;fill-opacity:1;stroke:none;font-family:Sans"
       x="361.78638"
       y="108.8792"
       id="text6969-3"
       sodipodi:linespacing="125%"
       transform="scale(0.95744721,1.044444)"><tspan
         sodipodi:role="line"
         id="tspan6971-9"
         x="361.78638"
         y="108.8792"
         style="font-size:23.88677979px">Document</tspan></text>
    <path
       style="fill:none;stroke:#000000;stroke-width:2.88218665;stroke-linecap:butt;stroke-linejoin:miter;stroke-miterlimit:4;stroke-opacity:1;stroke-dasharray:none"
       d="m 266.66539,121.08643 c 226.92859,0 227.66776,0 227.66776,0 l 0,3.56158"
       id="path6973-3"
       inkscape:connector-curvature="0" />
    <text
       xml:space="preserve"
       style="font-size:16px;font-style:normal;font-weight:normal;line-height:125%;letter-spacing:0px;word-spacing:0px;fill:#000000;fill-opacity:1;stroke:none;font-family:Sans"
       x="113.19354"
       y="187.8989"
       id="text7650"
       sodipodi:linespacing="125%"><tspan
         sodipodi:role="line"
         x="113.19354"
         y="187.8989"
         id="tspan7654" /></text>
    <text
       xml:space="preserve"
       style="font-size:11.94338989px;font-style:normal;font-weight:normal;line-height:125%;letter-spacing:0px;word-spacing:0px;fill:#000000;fill-opacity:1;stroke:none;font-family:Sans"
       x="296.93866"
       y="140.73814"
       id="text7656"
       sodipodi:linespacing="125%"
       transform="scale(0.95744721,1.044444)"><tspan
         sodipodi:role="line"
         id="tspan7658"
         x="296.93866"
         y="140.73814">- List&lt;Field&gt; getFields()</tspan></text>
    <text
       xml:space="preserve"
       style="font-size:10.03606796px;font-style:normal;font-weight:normal;line-height:125%;letter-spacing:0px;word-spacing:0px;fill:#000000;fill-opacity:1;stroke:none;font-family:Sans"
       x="133.75728"
       y="338.51794"
       id="text7656-1"
       sodipodi:linespacing="125%"
       transform="scale(1.0714209,0.93334002)"><tspan
         sodipodi:role="line"
         id="tspan7658-7"
         x="133.75728"
         y="338.51794">- List&lt;Concept&gt; accept(</tspan><tspan
         sodipodi:role="line"
         x="133.75728"
         y="351.06302"
         id="tspan4810">DocumentFieldProcessor visitor)</tspan></text>
    <rect
       style="fill:none;stroke:#000000;stroke-width:2.98833442;stroke-miterlimit:10;stroke-opacity:1;stroke-dasharray:none"
       id="rect6967-4"
       width="249.1689"
       height="120.10987"
       x="43.866966"
       y="413.03595" />
    <text
       xml:space="preserve"
       style="font-size:15.43618584px;font-style:normal;font-weight:normal;line-height:125%;letter-spacing:0px;word-spacing:0px;fill:#000000;fill-opacity:1;stroke:none;font-family:Sans"
       x="116.41239"
       y="446.55249"
       id="text6969-0"
       sodipodi:linespacing="125%"
       transform="scale(0.9988347,1.0011667)"><tspan
         sodipodi:role="line"
         id="tspan6971-94"
         x="116.41239"
         y="446.55249"
         style="font-size:30.87237167px">TagField</tspan></text>
    <path
       style="fill:none;stroke:#000000;stroke-width:3.44726968;stroke-linecap:butt;stroke-linejoin:miter;stroke-miterlimit:4;stroke-opacity:1;stroke-dasharray:none"
       d="m 44.880818,455.74001 c 246.499012,0 247.301942,0 247.301942,0 l 0,4.69053"
       id="path6973-8"
       inkscape:connector-curvature="0" />
    <text
       xml:space="preserve"
       style="font-size:15.43618584px;font-style:normal;font-weight:normal;line-height:125%;letter-spacing:0px;word-spacing:0px;fill:#000000;fill-opacity:1;stroke:none;font-family:Sans"
       x="62.368351"
       y="483.35202"
       id="text7656-1-8"
       sodipodi:linespacing="125%"
       transform="scale(0.9988347,1.0011667)"><tspan
         sodipodi:role="line"
         id="tspan7658-7-2"
         x="62.368351"
         y="483.35202">- List&lt;Concept&gt; accept(</tspan><tspan
         sodipodi:role="line"
         x="62.368351"
         y="502.64725"
         id="tspan4810-4">DocumentFieldProcessor visitor)</tspan></text>
    <flowRoot
       xml:space="preserve"
       id="flowRoot4848"
       style="fill:black;stroke:none;stroke-opacity:1;stroke-width:1px;stroke-linejoin:miter;stroke-linecap:butt;fill-opacity:1;font-family:Sans;font-style:normal;font-weight:normal;font-size:40px;line-height:125%;letter-spacing:0px;word-spacing:0px"><flowRegion
         id="flowRegion4850"><rect
           id="rect4852"
           width="469.17813"
           height="182.70177"
           x="-54.079723"
           y="286.60925" /></flowRegion><flowPara
         id="flowPara4854"></flowPara></flowRoot>    <rect
       style="fill:none;stroke:#000000;stroke-width:3.11950564;stroke-miterlimit:7;stroke-opacity:1;stroke-dasharray:none"
       id="rect6967-4-5"
       width="270.17416"
       height="119.98788"
       x="228.43672"
       y="557.09583" />
    <text
       xml:space="preserve"
       style="font-size:15.43618584px;font-style:normal;font-weight:normal;line-height:125%;letter-spacing:0px;word-spacing:0px;fill:#000000;fill-opacity:1;stroke:none;font-family:Sans"
       x="301.13681"
       y="590.38354"
       id="text6969-0-5"
       sodipodi:linespacing="125%"
       transform="scale(0.9988347,1.0011667)"><tspan
         sodipodi:role="line"
         id="tspan6971-94-1"
         x="301.13681"
         y="590.38354"
         style="font-size:30.87237167px">TextField</tspan></text>
    <path
       style="fill:none;stroke:#000000;stroke-width:3.54807782;stroke-linecap:butt;stroke-linejoin:miter;stroke-miterlimit:7;stroke-opacity:1;stroke-dasharray:none;marker-start:none"
       d="m 229.43482,599.78411 c 264.65988,0 265.52199,0 265.52199,0 l 0,4.60023"
       id="path6973-8-7"
       inkscape:connector-curvature="0" />
    <text
       xml:space="preserve"
       style="font-size:15.43618584px;font-style:normal;font-weight:normal;line-height:125%;letter-spacing:0px;word-spacing:0px;fill:#000000;fill-opacity:1;stroke:none;font-family:Sans"
       x="247.09267"
       y="627.18311"
       id="text7656-1-8-1"
       sodipodi:linespacing="125%"
       transform="scale(0.9988347,1.0011667)"><tspan
         sodipodi:role="line"
         id="tspan7658-7-2-1"
         x="247.09267"
         y="627.18311">- List&lt;Concept&gt; accept(</tspan><tspan
         sodipodi:role="line"
         x="247.09267"
         y="646.47839"
         id="tspan4810-4-5">DocumentFieldProcessor visitor)</tspan></text>
    <rect
       style="fill:none;stroke:#000000;stroke-width:3.11016607;stroke-miterlimit:10;stroke-opacity:1;stroke-dasharray:none"
       id="rect6967-4-2"
       width="270.17416"
       height="119.98788"
       x="359.42401"
       y="407.45001" />
    <text
       xml:space="preserve"
       style="font-size:15.43618584px;font-style:normal;font-weight:normal;line-height:125%;letter-spacing:0px;word-spacing:0px;fill:#000000;fill-opacity:1;stroke:none;font-family:Sans"
       x="432.27682"
       y="440.91202"
       id="text6969-0-7"
       sodipodi:linespacing="125%"
       transform="scale(0.9988347,1.0011667)"><tspan
         sodipodi:role="line"
         id="tspan6971-94-6"
         x="432.27682"
         y="440.91202"
         style="font-size:30.87237167px">ImageField</tspan></text>
    <path
       style="fill:none;stroke:#000000;stroke-width:3.53745484;stroke-linecap:butt;stroke-linejoin:miter;stroke-miterlimit:4;stroke-opacity:1;stroke-dasharray:none"
       d="m 360.42214,450.13814 c 264.6599,0 265.522,0 265.522,0 l 0,4.60024"
       id="path6973-8-1"
       inkscape:connector-curvature="0" />
    <text
       xml:space="preserve"
       style="font-size:15.43618584px;font-style:normal;font-weight:normal;line-height:125%;letter-spacing:0px;word-spacing:0px;fill:#000000;fill-opacity:1;stroke:none;font-family:Sans"
       x="378.23276"
       y="477.71155"
       id="text7656-1-8-4"
       sodipodi:linespacing="125%"
       transform="scale(0.9988347,1.0011667)"><tspan
         sodipodi:role="line"
         id="tspan7658-7-2-2"
         x="378.23276"
         y="477.71155">- List&lt;Concept&gt; accept(</tspan><tspan
         sodipodi:role="line"
         x="378.23276"
         y="497.00677"
         id="tspan4810-4-3">DocumentFieldProcessor visitor)</tspan></text>
    <path
       style="fill:none;stroke:#000000;stroke-width:3.01506996;stroke-linecap:butt;stroke-linejoin:miter;stroke-miterlimit:4;stroke-opacity:1;stroke-dasharray:none;marker-start:url(#EmptyTriangleInL);marker-end:none"
       d="m 193.38415,348.992 -12.86708,64.04395"
       id="path4911"
       inkscape:connector-type="polyline"
       inkscape:connector-curvature="3"
       inkscape:connection-end="#rect6967-4"
       inkscape:connection-end-point="d4" />
    <path
       style="fill:none;stroke:#000000;stroke-width:3.35691428;stroke-linecap:butt;stroke-linejoin:miter;stroke-miterlimit:4;stroke-opacity:1;stroke-dasharray:none;marker-start:url(#EmptyTriangleInL)"
       d="m 302.62476,348.992 94.6991,58.45801"
       id="path5483"
       inkscape:connector-type="polyline"
       inkscape:connector-curvature="3"
       inkscape:connection-end-point="d4"
       inkscape:connection-end="#rect6967-4-2" />
    <path
       style="fill:none;stroke:#000000;stroke-width:3.39122176;stroke-linecap:butt;stroke-linejoin:miter;stroke-miterlimit:4;stroke-opacity:1;stroke-dasharray:none;marker-start:url(#EmptyTriangleInL)"
       d="M 268.57199,345.99941 355.0171,555.65385"
       id="path5675"
       inkscape:connector-type="polyline"
       inkscape:connector-curvature="3" />
    <rect
       style="fill:none;stroke:#000000;stroke-width:2.64458537;stroke-miterlimit:7;stroke-opacity:1;stroke-dasharray:none"
       id="rect6967-4-5-2"
       width="242.39488"
       height="96.117249"
       x="635.96552"
       y="85.403603" />
    <text
       xml:space="preserve"
       style="font-size:13.82438564px;font-style:normal;font-weight:normal;line-height:125%;letter-spacing:0px;word-spacing:0px;fill:#000000;fill-opacity:1;stroke:none;font-family:Sans"
       x="700.9104"
       y="115.8715"
       id="text6969-0-5-2"
       sodipodi:linespacing="125%"><tspan
         sodipodi:role="line"
         id="tspan6971-94-1-1"
         x="700.9104"
         y="115.8715"
         style="font-size:27.64877129px">Concept</tspan></text>
    <path
       style="fill:none;stroke:#000000;stroke-width:3.17759824;stroke-linecap:butt;stroke-linejoin:miter;stroke-miterlimit:7;stroke-opacity:1;stroke-dasharray:none;marker-start:none"
       d="m 636.93501,123.66446 c 237.30145,0 238.0744,0 238.0744,0 l 0,4.1151"
       id="path6973-8-7-6"
       inkscape:connector-curvature="0" />
    <text
       xml:space="preserve"
       style="font-size:13.82438564px;font-style:normal;font-weight:normal;line-height:125%;letter-spacing:0px;word-spacing:0px;fill:#000000;fill-opacity:1;stroke:none;font-family:Sans"
       x="652.50946"
       y="148.82866"
       id="text7656-1-8-1-8"
       sodipodi:linespacing="125%"><tspan
         sodipodi:role="line"
         x="652.50946"
         y="148.82866"
         id="tspan4810-4-5-7">- URL id</tspan><tspan
         sodipodi:role="line"
         x="652.50946"
         y="166.10915"
         id="tspan6471">+ getId()</tspan></text>
    <rect
       style="fill:none;stroke:#000000;stroke-width:2.64458537;stroke-miterlimit:7;stroke-opacity:1;stroke-dasharray:none"
       id="rect6967-4-5-2-1"
       width="242.39488"
       height="96.117249"
       x="475.58105"
       y="223.06715" />
    <text
       xml:space="preserve"
       style="font-size:13.82438564px;font-style:normal;font-weight:normal;line-height:125%;letter-spacing:0px;word-spacing:0px;fill:#000000;fill-opacity:1;stroke:none;font-family:Sans"
       x="540.52594"
       y="253.53499"
       id="text6969-0-5-2-9"
       sodipodi:linespacing="125%"><tspan
         sodipodi:role="line"
         id="tspan6971-94-1-1-86"
         x="540.52594"
         y="253.53499"
         style="font-size:27.64877129px">TConcept</tspan></text>
    <path
       style="fill:none;stroke:#000000;stroke-width:3.17759824;stroke-linecap:butt;stroke-linejoin:miter;stroke-miterlimit:7;stroke-opacity:1;stroke-dasharray:none;marker-start:none"
       d="m 476.55053,261.32804 c 237.30142,0 238.07439,0 238.07439,0 l 0,4.11509"
       id="path6973-8-7-6-5"
       inkscape:connector-curvature="0" />
    <text
       xml:space="preserve"
       style="font-size:13.82438564px;font-style:normal;font-weight:normal;line-height:125%;letter-spacing:0px;word-spacing:0px;fill:#000000;fill-opacity:1;stroke:none;font-family:Sans"
       x="492.125"
       y="286.49213"
       id="text7656-1-8-1-8-0"
       sodipodi:linespacing="125%"><tspan
         sodipodi:role="line"
         x="492.125"
         y="286.49213"
         id="tspan4810-4-5-7-2">- URL id</tspan><tspan
         sodipodi:role="line"
         x="492.125"
         y="303.77261"
         id="tspan6471-8">+ getId()</tspan></text>
    <rect
       style="fill:none;stroke:#000000;stroke-width:2.64458537;stroke-miterlimit:7;stroke-opacity:1;stroke-dasharray:none"
       id="rect6967-4-5-2-1-6"
       width="242.39488"
       height="96.117249"
       x="758.28839"
       y="220.66554" />
    <text
       xml:space="preserve"
       style="font-size:13.82438564px;font-style:normal;font-weight:normal;line-height:125%;letter-spacing:0px;word-spacing:0px;fill:#000000;fill-opacity:1;stroke:none;font-family:Sans"
       x="823.23334"
       y="251.13356"
       id="text6969-0-5-2-9-0"
       sodipodi:linespacing="125%"><tspan
         sodipodi:role="line"
         id="tspan6971-94-1-1-86-2"
         x="823.23334"
         y="251.13356"
         style="font-size:27.64877129px">VConcept</tspan></text>
    <path
       style="fill:none;stroke:#000000;stroke-width:3.17759824;stroke-linecap:butt;stroke-linejoin:miter;stroke-miterlimit:7;stroke-opacity:1;stroke-dasharray:none;marker-start:none"
       d="m 759.25794,258.92646 c 237.30138,0 238.07438,0 238.07438,0 l 0,4.11509"
       id="path6973-8-7-6-5-4"
       inkscape:connector-curvature="0" />
    <text
       xml:space="preserve"
       style="font-size:13.82438564px;font-style:normal;font-weight:normal;line-height:125%;letter-spacing:0px;word-spacing:0px;fill:#000000;fill-opacity:1;stroke:none;font-family:Sans"
       x="774.8324"
       y="284.09058"
       id="text7656-1-8-1-8-0-8"
       sodipodi:linespacing="125%"><tspan
         sodipodi:role="line"
         x="774.8324"
         y="284.09058"
         id="tspan4810-4-5-7-2-6">- URL id</tspan><tspan
         sodipodi:role="line"
         x="774.8324"
         y="301.37106"
         id="tspan6471-8-5">+ getId()</tspan></text>
    <rect
       style="fill:none;stroke:#000000;stroke-width:2.21376419;stroke-miterlimit:7;stroke-opacity:1;stroke-dasharray:none"
       id="rect6967-4-5-2-1-8"
       width="242.8257"
       height="67.232246"
       x="761.46631"
       y="355.72003" />
    <text
       xml:space="preserve"
       style="font-size:13.82438564px;font-style:normal;font-weight:normal;line-height:125%;letter-spacing:0px;word-spacing:0px;fill:#000000;fill-opacity:1;stroke:none;font-family:Sans"
       x="791.81403"
       y="384.57104"
       id="text6969-0-5-2-9-9"
       sodipodi:linespacing="125%"><tspan
         sodipodi:role="line"
         id="tspan6971-94-1-1-86-3"
         x="791.81403"
         y="384.57104"
         style="font-size:27.64877129px">ClassifierModel</tspan></text>
    <path
       style="fill:none;stroke:#000000;stroke-width:3.17759824;stroke-linecap:butt;stroke-linejoin:miter;stroke-miterlimit:7;stroke-opacity:1;stroke-dasharray:none;marker-start:none"
       d="m 762.65111,394.1964 c 237.30141,0 238.07429,0 238.07429,0 l 0,4.11509"
       id="path6973-8-7-6-5-44"
       inkscape:connector-curvature="0" />
    <path
       style="fill:none;stroke:#000000;stroke-width:2.14094377;stroke-linecap:butt;stroke-linejoin:miter;stroke-miterlimit:4;stroke-opacity:1;stroke-dasharray:none;marker-start:none;marker-end:url(#EmptyDiamondLend)"
       d="m 881.93339,355.72003 -1.09547,-38.93724"
       id="path7372"
       inkscape:connector-type="polyline"
       inkscape:connector-curvature="0"
       inkscape:connection-start="#rect6967-4-5-2-1-8"
       inkscape:connection-start-point="d4"
       inkscape:connection-end="#rect6967-4-5-2-1-6"
       inkscape:connection-end-point="d4" />
    <path
       style="fill:none;stroke:#000000;stroke-width:3.02930212;stroke-linecap:butt;stroke-linejoin:miter;stroke-miterlimit:4;stroke-opacity:1;stroke-dasharray:none;marker-start:url(#EmptyTriangleInL)"
       d="m 701.17242,181.52085 -48.40338,41.5463"
       id="path8526"
       inkscape:connector-type="polyline"
       inkscape:connector-curvature="0"
       inkscape:connection-start="#rect6967-4-5-2"
       inkscape:connection-start-point="d4"
       inkscape:connection-end="#rect6967-4-5-2-1"
       inkscape:connection-end-point="d4" />
    <path
       style="fill:none;stroke:#000000;stroke-width:3.02930212;stroke-linecap:butt;stroke-linejoin:miter;stroke-miterlimit:4;stroke-opacity:1;stroke-dasharray:none;marker-start:url(#EmptyTriangleInL)"
       d="m 800.62433,181.52085 35.40013,39.14469"
       id="path8722"
       inkscape:connector-type="polyline"
       inkscape:connector-curvature="0"
       inkscape:connection-start="#rect6967-4-5-2"
       inkscape:connection-start-point="d4"
       inkscape:connection-end="#rect6967-4-5-2-1-6"
       inkscape:connection-end-point="d4" />
    <path
       style="fill:none;stroke:#000000;stroke-width:2.58512306;stroke-linecap:butt;stroke-linejoin:miter;stroke-miterlimit:4;stroke-opacity:1;stroke-dasharray:none;marker-start:url(#EmptyDiamondLstart);marker-end:none"
       d="M 336.82813,183.22558 257.0259,273.02759"
       id="path9108"
       inkscape:connector-type="polyline"
       inkscape:connector-curvature="0"
       inkscape:connection-start="#rect6967-8"
       inkscape:connection-start-point="d4"
       inkscape:connection-end="#rect6967"
       inkscape:connection-end-point="d4" />
    <path
       style="stroke-width:2.77086616;stroke-miterlimit:4;stroke-dasharray:none"
       id="path10264"
       d="m 693.04753,50.349479 c -3.87626,-0.363507 -7.64128,0.153855 -11.45134,0.762346 -2.97919,0.480005 -5.99582,0.598251 -9.0072,0.665155 -3.06948,-0.229536 -6.01863,0.377808 -9.03648,0.799358 -3.17537,1.00702 -6.43619,1.606881 -9.74502,1.930054 -3.68522,-0.05786 -7.2804,0.469164 -10.91501,0.987748 -3.761,0.549487 -7.5688,0.576685 -11.36153,0.621032 -3.42496,-0.02338 -6.76321,0.872426 -10.16158,1.24038 -2.958,0.748577 -5.88355,1.332785 -8.65786,2.646716 -3.0711,1.248981 -6.34854,1.729734 -9.44479,2.929954 -3.27945,0.776201 -6.04694,2.00424 -9.00837,3.533881 -6.60837,3.086493 -16.32613,8.957919 15.27522,-8.902733 0.34547,-0.195256 -0.6529,0.454786 -0.94813,0.719949 -0.61918,0.556103 -1.37353,1.489291 -1.90054,2.108543 -1.90061,2.322729 -3.22699,5.049956 -4.16221,7.886406 -0.59471,2.890824 -1.23057,5.780592 -1.75871,8.686622 -0.40268,3.443113 -0.79267,6.881977 -1.27498,10.316773 -0.481,3.299567 -0.67755,6.62775 -0.78055,9.957392 -0.0496,3.007795 0.0401,5.999315 -0.39592,8.981765 -0.39599,2.75666 -0.81412,5.48108 -1.5402,8.17077 -0.69503,2.67071 -0.82358,5.42998 -1.34012,8.13484 -0.47643,3.26857 -1.02161,6.50446 -2.18586,9.60536 -0.93073,2.64594 -1.83961,5.3168 -2.55428,8.03152 -1.01998,4.38105 -4.25773,7.68977 -7.29144,10.81988 -4.39511,4.53279 -9.07087,8.76628 -13.72929,13.02259 -2.93904,2.83139 -5.71136,5.84287 -8.41662,8.89885 -1.85872,2.19266 -3.75812,4.33039 -5.75989,6.39358 -2.14558,1.99389 -4.081,4.19789 -6.48005,5.89323 -8.86771,14.17797 -14.27276,8.29759 -22.42038,12.50082 -1.42731,0.73632 -2.73207,1.43893 -4.24418,2.00582 -1.46616,1.221 -3.32014,1.47761 -5.02789,2.11439 -0.74123,0.27638 -1.4193,0.70226 -2.15173,1.00119 -2.3311,1.38084 -5.01593,2.00768 -7.58574,2.81008 -3.55363,0.46691 -6.94317,1.39435 -10.30313,2.59873 -2.85025,1.00963 -5.85743,1.25603 -8.85302,1.39191 -2.96397,0.0858 -5.93002,0.0724 -8.89478,0.0451 -3.29815,-0.0194 -6.59637,-0.0149 -9.89456,-0.013 -2.98413,0.002 -5.96826,0.003 -8.95239,0.004 -2.94357,-0.18356 -5.48341,1.3355 -8.08095,2.47844 -6.75498,3.69236 -7.1519,3.9222 15.43349,-8.87754 0.53513,-0.30327 -1.05075,0.64059 -1.56032,0.98508 -1.50535,1.01768 -2.81843,2.18393 -4.13601,3.42701 -2.42471,2.37755 -4.56409,5.03238 -6.73397,7.64044 -2.18481,2.40772 -4.10197,4.9432 -5.20944,8.01417 -0.89351,3.3528 -0.87216,6.86178 -0.90122,10.3073 0.0167,3.48043 0.0177,6.96085 0.0351,10.44128 0.0203,3.18962 0.0325,6.37927 0.0389,9.56894 0.0138,3.74506 -0.0545,7.48933 -0.0776,11.23429 -0.0679,5.2882 -0.0197,10.57647 -0.0234,15.86487 0.006,4.12297 0.083,8.24555 0.0693,12.36851 0.0154,3.90273 -0.0282,7.80509 -0.0161,11.70781 0.0181,3.39892 0.036,6.79782 0.0452,10.19677 -0.0316,3.34695 -0.0138,6.69411 -0.005,10.04113 -0.17248,2.57348 0.059,4.95153 1.12254,7.29426 1.23528,1.59896 2.09354,3.43875 3.41187,4.97403 1.62357,1.12109 2.95006,2.61351 4.73428,3.48911 1.84252,1.35422 3.99697,2.29018 6.17707,2.9632 2.81298,0.50086 5.52758,1.3574 8.35267,1.81579 2.83394,0.97557 5.76977,1.47136 8.74451,1.73374 3.29357,0.2097 6.59578,0.19961 9.89446,0.19799 3.5495,-0.001 7.09899,-0.003 10.64848,0.0143 4.09967,0.004 8.19935,-0.0139 12.299,-0.006 3.80544,-0.014 7.61086,-0.005 11.4163,-0.0124 3.51036,-0.0162 7.02069,-0.0115 10.53103,0.006 3.91037,0.007 7.82076,-0.006 11.73112,0.004 3.98854,-0.0117 7.97706,0.006 11.9656,0.003 3.71685,-0.0203 7.43369,-0.009 11.15055,-0.0152 3.22023,-0.008 6.44047,-0.015 9.6607,-0.0185 2.98483,0.0824 5.91022,0.84453 8.88788,1.16414 3.15464,0.28206 6.32485,0.29051 9.48934,0.32576 3.89367,0.0215 7.78737,6.2e-4 11.68105,0.008 4.649,0.16938 8.86875,1.98762 13.19225,3.47659 4.88556,1.72073 9.61716,3.79059 14.3222,5.94372 3.85306,2.03201 7.72821,4.02809 11.65973,5.90458 3.33843,1.86222 6.68018,3.72555 9.98683,5.64515 3.24205,1.57565 5.90867,4.08844 8.99682,5.91895 3.98258,2.21901 7.60698,4.95088 11.04338,7.9323 3.80502,3.03282 6.92552,6.78126 10.22049,10.32811 2.26621,2.33976 4.15509,4.81048 5.70729,7.66755 1.56471,3.67056 2.82078,7.49703 4.08915,11.28831 1.02264,3.28269 2.53882,6.34739 3.97755,9.45132 1.42626,3.51291 3.25706,6.82216 5.1124,10.11861 1.6203,2.42594 3.38037,4.73259 4.98509,7.16947 1.59236,2.14143 3.02269,4.40851 4.77812,6.43493 2.694,4.64216 4.12511,9.86736 5.4705,15.02312 1.64482,7.91396 5.82838,14.83201 9.8841,21.70189 4.53536,7.80448 9.75165,15.16618 15.35273,22.23461 3.82487,4.74787 7.4138,9.67809 11.27528,14.39634 2.71254,3.37703 5.35472,6.72393 8.63791,9.56895 3.36213,3.03684 7.20788,5.32654 11.171,7.45858 3.07498,1.17255 5.78362,3.15562 8.87546,4.25019 3.76449,0.92691 7.66825,0.95482 11.52202,1.03838 4.47216,0.0551 8.94451,0.008 13.41683,0.0102 3.86728,-0.0123 7.7345,-0.04 11.60177,-0.0549 2.98553,-0.14899 6.028,0.30073 8.96897,-0.29051 3.2777,-0.82731 6.67805,-0.70099 9.9851,-1.28802 4.29338,-0.83803 8.44318,-2.18119 12.73696,-3.03942 5.185,-1.23145 10.28996,-2.78871 15.15228,-4.97763 5.14525,-2.11253 10.34541,-4.06734 15.54872,-6.02951 5.77869,-2.18516 11.52757,-4.48256 17.37112,-6.48877 6.50514,-1.759 13.14055,-2.95538 19.6653,-4.62611 4.59993,-1.18188 9.26252,-1.80257 13.56399,-3.88712 3.7675,-1.98993 0.10612,-0.003 3.83249,-2.18735 0.62094,-0.36401 2.50873,-1.41252 1.88542,-1.05257 -5.52518,3.19077 -22.11326,12.74127 -16.59121,9.5451 20.22224,-11.7047 13.03666,-8.51687 21.7878,-12.30676 3.21194,-0.91176 6.04994,-2.71112 9.05562,-4.10837 3.38506,-1.37336 6.68505,-2.96955 10.23748,-3.88952 1.28191,-0.48725 2.40404,-1.06219 3.54173,-1.79664 0.32429,-0.20936 1.34136,-0.76464 1.00695,-0.57185 -27.98089,16.13229 -18.89644,10.89023 2.12231,-1.29199 -32.18053,18.72931 -18.98109,11.35147 -12.19983,6.48165 1.98189,-1.51926 4.12622,-2.81491 6.09369,-4.35368 1.84132,-1.57704 3.84005,-2.95849 5.73187,-4.47157 1.85594,-1.5962 3.85157,-3.0323 5.34904,-4.98577 1.45617,-1.92167 3.42863,-3.33358 5.12516,-5.01794 1.78236,-2.07914 3.01198,-4.50467 4.34798,-6.86955 1.14185,-2.1808 2.13153,-4.43725 3.26941,-6.61861 1.55293,-2.28253 2.96834,-4.6576 4.68167,-6.82506 1.71953,-2.18405 3.29443,-4.47488 4.99883,-6.67036 2.1629,-2.07849 3.2713,-4.77314 4.3014,-7.5225 1.2172,-3.33659 2.3854,-6.68012 3.1034,-10.16239 0.5973,-3.37215 0.6419,-6.80656 0.6823,-10.22099 0.073,-4.73999 0.065,-9.48125 0.028,-14.2216 -0.01,-4.28439 -0.016,-8.56872 -0.046,-12.85318 0.012,-3.60637 -0.013,-7.21273 -0.027,-10.81906 -0.025,-3.15052 -0,-6.3009 0.01,-9.45136 0.01,-3.29324 -0.026,-6.58646 -2e-4,-9.87962 0.01,-3.62536 0.02,-7.25054 0.01,-10.87592 0,-3.51712 0,-7.0342 -0.01,-10.55136 -0,-3.02265 0.1058,-6.03007 -0.3519,-9.02427 -0.563,-2.93156 -0.8494,-5.89879 -1.0112,-8.87603 -0.1252,-3.78549 -0.062,-7.57256 -0.07,-11.35917 0.2446,-3.5691 -0.4048,-7.06276 -0.8422,-10.58298 -0.289,-3.768 -1.1253,-7.46097 -1.6241,-11.20325 -0.3858,-3.62863 -0.4359,-7.27787 -0.4702,-10.92273 0.023,-4.58223 0.033,-9.16447 0.053,-13.74673 -0.071,-5.93251 0.1726,-11.85785 -0.011,-17.78843 -0.3184,-8.29072 -1.0503,-16.56207 -2.1478,-24.78487 -1.0259,-7.49575 -1.5543,-15.04286 -1.9524,-22.59365 -0.07,-4.72938 -0.1889,-9.35023 -1.2853,-13.95756 -0.9876,-4.74457 -1.9808,-9.48863 -2.92629,-14.24214 -1.05323,-5.65428 -2.81632,-11.11045 -4.89698,-16.45919 -1.87959,-4.72566 -3.70195,-9.43828 -7.16809,-13.23115 -3.76931,-4.58362 -8.9135,-7.43624 -14.14189,-10.02615 -6.05003,-2.64673 -12.28602,-4.82442 -18.3624,-7.41678 -8.12644,-3.57554 -15.46941,-8.6507 -22.64322,-13.82203 -8.78544,-6.4413 -17.16235,-13.44664 -25.31388,-20.670332 -5.28584,-3.891192 -9.18962,-9.042662 -12.65036,-14.538702 -3.42215,-4.869773 -5.41453,-10.324126 -6.60467,-16.103734 -1.15273,-5.078657 -0.40104,-10.460424 -1.77832,-15.476304 -1.08995,-2.256891 -3.58433,-2.0791 -5.76481,-2.149945 -3.48883,-0.03231 -6.97815,0.01979 -10.46684,0.05854 -3.29452,0.311794 -6.4822,-0.516431 -9.72443,-0.940883 -3.41852,-0.370106 -6.85942,-0.413651 -10.29391,-0.465156 -3.39682,-0.610261 -6.81253,-1.048876 -10.25545,-1.277004 -3.91755,-0.205485 -7.84196,-0.198295 -11.76365,-0.223915 -5.93462,-0.02459 -11.86914,-0.06559 -17.80377,-0.08983 -5.94124,-0.01733 -11.8822,0.05362 -17.82313,0.102998 -4.16753,0.14252 -8.29033,-8.15e-4 -12.42424,-0.515849 -4.55135,-0.646468 -9.14884,-0.802727 -13.73832,-0.907803 -4.35991,-0.06772 -8.72039,-0.03313 -13.08063,-0.04777 -4.12318,-0.01352 -8.24631,0.02232 -12.36946,0.01654 -4.09651,0.0068 -8.19274,-0.01425 -12.28928,-4.36e-4 -3.36553,0.0149 -6.73107,0.02524 -10.09663,0.03054 -3.28538,-0.0098 -6.57075,-0.01218 -9.85617,-0.0072 -3.1084,0.002 -6.21683,0.01801 -9.32519,-0.001 -3.52599,-0.194163 -6.98039,0.571252 -10.46994,0.974612 -2.74334,0.30675 -5.50229,0.407319 -8.25994,0.471787 0,0 17.43832,-12.749876 17.43832,-12.749876 l 0,0 c 2.70538,-0.0996 5.41007,-0.250141 8.09725,-0.59403 3.54067,-0.447765 7.06805,-0.994621 10.65197,-0.78622 3.1093,-0.01872 6.21866,-0.0033 9.328,-0.001 3.292,0.005 6.58394,0.0026 9.8759,-0.0071 3.33749,0.0053 6.67496,0.01573 10.01241,0.03052 4.09833,0.01364 8.19633,-0.0079 12.29463,-0.0048 4.11652,-0.0101 8.23309,0.01715 12.34963,9.5e-5 4.3398,-0.01174 8.67921,0.03444 13.01738,0.162048 4.65941,0.137236 9.32284,0.300434 13.94045,0.994093 4.08768,0.424408 8.17816,0.302551 12.28281,0.31603 5.84994,0.04847 11.69997,0.117157 17.55022,0.09444 6.02437,-0.02947 12.0486,-0.08525 18.07305,-0.0947 3.97382,0.0041 7.95223,0.02664 11.9181,0.304097 3.40774,0.291907 6.77266,0.902606 10.18067,1.172156 3.5025,0.06102 7.00863,0.206497 10.48622,0.652184 3.15224,0.46631 6.2847,0.970051 9.48765,0.715847 3.55393,-0.03292 7.11286,-0.151769 10.66395,0.03945 3.10785,0.38612 5.8138,1.309944 7.10916,4.435252 1.35835,5.124247 0.48889,10.540707 1.59902,15.730948 1.0828,5.539588 3.0121,10.735724 6.24339,15.415773 3.35823,5.309785 7.15911,10.237517 12.08183,14.216461 7.88382,7.384325 16.20203,14.314847 25.0347,20.543217 7.20317,5.01166 14.59815,9.8835 22.76234,13.20218 6.11643,2.56682 12.38019,4.77269 18.4027,7.55907 5.42646,2.77847 10.79644,5.8507 14.79024,10.56908 3.5365,4.07346 5.3909,9.01372 7.3882,13.97103 2.1803,5.44842 4.0285,10.98649 5.1056,16.77061 0.9784,4.70449 2.1239,9.37201 3.0381,14.0895 0.2054,0.82601 0.8473,3.33104 0.9729,4.15363 0.5193,3.40033 0.035,6.87773 0.2877,10.29517 0.217,7.51669 0.6762,15.03104 1.7643,22.47822 1.0624,8.28461 1.711,16.62237 2.2065,24.95853 0.3393,5.90524 0.3824,11.8209 0.3253,17.73543 0.012,4.55631 -0,9.11266 0.057,13.66875 0.025,3.56569 0.053,7.13865 0.384,10.69167 0.4177,3.75556 1.2193,7.44745 1.6136,11.2022 0.4551,3.61046 1.1921,7.19208 0.9021,10.85294 -0.01,3.73623 0.025,7.47342 0.1401,11.20796 0.1197,2.90274 0.3326,5.8037 0.8905,8.66043 0.54,3.10889 0.5901,6.19686 0.4805,9.35198 -0.012,3.52061 -0.014,7.04114 -0.01,10.56172 -0.013,3.62294 -0,7.24568 0.01,10.8686 0.026,3.29324 -0.01,6.58654 -2e-4,9.87985 0.01,3.14791 0.032,6.29574 0.01,9.4437 -0.014,3.61518 -0.04,7.23039 -0.026,10.84561 -0.028,4.29585 -0.034,8.59146 -0.027,12.88724 -0.022,4.73517 0,9.47045 0.05,14.20538 -0.015,3.51553 0.053,7.05143 -0.4597,10.53947 -0.6223,3.61661 -1.7823,7.04296 -2.9375,10.51493 -1.1147,2.82647 -1.8184,5.91479 -3.9176,8.22802 -2.0245,1.88864 -3.3269,4.38568 -5.0767,6.51112 -1.6368,2.18677 -3.3269,4.29271 -4.7186,6.6636 -1.5516,1.86474 -2.1936,4.35246 -3.3568,6.45746 -1.2758,2.46016 -2.5584,4.91118 -4.1748,7.17284 -1.2813,2.1307 -3.3787,3.34417 -5.0929,5.08653 -2.0395,2.28121 0.6057,-0.78387 -1.3895,1.91732 -1.00845,1.3653 -2.60293,2.30464 -3.86634,3.3992 -1.77673,1.71864 -3.9119,2.87894 -5.63031,4.65209 -1.40083,0.93889 -2.63712,2.07752 -4.05702,2.99133 -0.35655,0.22947 -0.7899,0.32791 -1.13507,0.57416 -0.33601,0.23973 -0.58965,0.57777 -0.88447,0.86665 -8.20354,5.12494 -15.21025,11.81076 -24.80754,15.04076 5.80447,-3.3695 23.16937,-13.56022 17.41341,-10.1085 -7.4001,4.43768 -15.59647,10.51531 -24.33476,13.33251 -3.42363,1.16307 -6.74648,2.63766 -10.02071,4.16433 -2.95303,1.49533 -5.95418,2.8658 -9.03691,4.07142 -0.52611,0.27404 -2.0902,1.12195 -1.57834,0.82214 5.54908,-3.25029 22.25605,-12.89861 16.69169,-9.67457 -8.51812,4.93547 -17.07797,10.42567 -26.03711,14.74848 -4.40872,1.63531 -9.05904,2.29481 -13.6004,3.47284 -6.53033,1.51363 -13.1346,2.77379 -19.5335,4.79636 -5.81274,2.12434 -11.60153,4.31822 -17.37571,6.54523 -5.21596,1.96068 -10.39514,4.01001 -15.54605,6.13623 -5.00283,1.98389 -10.16517,3.53222 -15.42551,4.67774 -4.3111,0.98637 -8.5235,2.42437 -12.92317,2.99566 -3.37448,0.37507 -6.74722,0.71706 -10.0935,1.30597 -3.02779,0.14053 -6.06019,0.0409 -9.09049,0.0626 -3.83167,-0.009 -7.66335,-0.0258 -11.49504,-0.0184 -4.48278,0.0229 -8.96633,0.028 -13.44848,-0.0598 -4.06813,-0.11541 -8.21416,-0.22313 -12.09542,-1.58379 -3.03626,-1.37104 -5.89861,-3.11715 -8.92717,-4.51498 -4.04334,-2.25228 -7.87518,-4.84538 -11.3799,-7.88075 -3.34733,-2.95678 -6.07163,-6.38348 -8.77965,-9.92106 -3.77795,-4.78453 -7.30458,-9.75999 -11.07866,-14.54828 -5.55083,-7.20794 -10.54367,-14.81198 -15.24887,-22.5954 -4.2444,-6.97235 -8.81251,-13.93875 -10.49682,-22.05608 -1.22151,-4.85099 -2.70577,-9.69674 -5.3479,-13.98876 -1.74733,-2.13936 -3.31232,-4.40644 -4.91304,-6.65174 -1.62033,-2.48099 -3.41985,-4.831 -4.96913,-7.35902 -1.85137,-3.35819 -3.7009,-6.71049 -5.2403,-10.22923 -1.47901,-3.1857 -2.97531,-6.3551 -4.02857,-9.71975 -1.15781,-3.67932 -2.47877,-7.3365 -3.95236,-10.89277 -1.50228,-2.66729 -3.36,-4.99274 -5.38881,-7.28661 -3.12344,-3.58243 -6.24756,-7.18921 -10.00564,-10.13919 -3.39493,-2.89813 -7.07047,-5.39039 -10.95451,-7.59089 -3.00407,-1.93241 -5.78136,-4.23042 -8.98836,-5.84062 -3.27643,-1.86341 -6.49519,-3.83306 -9.84052,-5.57059 -3.88047,-1.9481 -7.77851,-3.85815 -11.6182,-5.88634 -4.59935,-2.19971 -9.31421,-4.13979 -14.13878,-5.79349 -4.19029,-1.44325 -8.38333,-2.88131 -12.88303,-2.82243 -3.90455,0.0137 -7.80925,0.0102 -11.71376,-0.01 -3.23816,-0.0218 -6.48481,-0.0542 -9.70129,-0.47384 -2.90044,-0.39856 -5.78264,-1.08391 -8.72833,-0.95426 -3.20326,-0.003 -6.40652,-0.0102 -9.60977,-0.0185 -3.70296,-0.006 -7.40589,0.005 -11.10884,-0.0152 -3.99158,-0.003 -7.98315,0.015 -11.97473,0.003 -3.91436,0.0103 -7.82875,-0.002 -11.74312,0.004 -3.51535,0.0168 -7.03069,0.0218 -10.54605,0.005 -3.79403,-0.007 -7.58804,0.001 -11.38206,-0.0121 -4.09787,0.009 -8.19577,-0.008 -12.29364,0.004 -3.57774,0.0246 -7.15563,0.0408 -10.73343,0.0345 -3.35208,-0.0272 -6.7106,-0.0531 -10.05046,-0.37016 -2.99525,-0.39924 -5.90606,-1.12214 -8.83221,-1.86144 -2.87485,-0.59152 -5.73476,-1.29892 -8.56388,-2.07084 -2.25799,-0.8675 -4.46605,-1.87217 -6.45008,-3.2724 -1.85042,-1.20208 -3.5303,-2.66327 -5.15578,-4.15181 -1.36349,-1.732 -2.4198,-3.66021 -3.68045,-5.46536 -1.19956,-2.62285 -1.73182,-5.25049 -1.47064,-8.15766 0.008,-3.34517 0.0262,-6.6905 -0.005,-10.03559 0.009,-3.4143 0.0271,-6.82856 0.0452,-10.24283 0.012,-3.89726 -0.0314,-7.79414 -0.0161,-11.6914 -0.0138,-4.14653 0.0631,-8.29268 0.0694,-12.4392 -0.004,-5.28052 0.0447,-10.56092 -0.023,-15.84124 -0.0229,-3.71816 -0.0907,-7.4356 -0.0783,-11.15386 0.004,-3.19588 0.0118,-6.39175 0.0119,-9.58763 -0.006,-3.48981 -0.053,-6.97938 -0.0304,-10.46925 0.0217,-3.61548 -0.0188,-7.25138 0.56251,-10.83189 0.86953,-3.42079 2.51859,-6.27846 4.91339,-8.88601 2.31645,-2.50598 4.3125,-5.29969 6.60795,-7.83329 1.73187,-1.56793 0.87521,-0.73368 2.56084,-2.51211 0.38802,-0.36007 2.50747,-2.04708 2.98539,-2.32785 18.6044,-10.9301 13.17109,-8.35631 21.59493,-12.25866 2.78363,-1.20263 5.57747,-2.04895 8.65099,-1.79626 2.97909,8.8e-4 5.95819,0.002 8.93727,0.01 3.29435,0.009 6.5887,0.0261 9.88307,0.0222 2.94723,-0.0186 5.89837,0.0119 8.8406,-0.18958 2.89561,-0.26155 5.74581,-0.76863 8.47504,-1.81077 3.40044,-1.09293 6.93114,-1.60182 10.35307,-2.60604 2.56358,-0.87708 5.12289,-1.70732 7.52878,-2.978 2.38099,-1.00497 4.83067,-1.82942 7.11032,-3.07464 7.67914,-3.60713 22.31937,-11.19772 -10.43017,6.76459 2.46794,-1.57693 4.7104,-3.30062 6.59003,-5.58514 2.22547,-1.81489 4.1171,-3.99368 5.86118,-6.27537 2.97636,-2.92606 5.56787,-6.2435 8.60449,-9.11872 4.57098,-4.34741 9.4935,-8.3135 13.78665,-12.95317 2.84734,-2.81758 6.07807,-5.775 7.47986,-9.60974 0.58839,-2.84754 1.64965,-5.53771 2.42132,-8.32818 1.26161,-2.9744 2.17542,-5.9747 2.40823,-9.23106 0.47099,-2.74804 0.76859,-5.49116 1.20222,-8.24677 0.66365,-2.66715 1.47162,-5.24587 1.66777,-8.0145 0.53297,-2.90043 0.5832,-5.77625 0.53624,-8.72727 0.0898,-3.41273 0.26622,-6.82565 0.75038,-10.208726 0.4805,-3.439913 0.92835,-6.861002 1.16364,-10.326023 0.4595,-2.994707 1.27052,-5.907214 1.65665,-8.91223 0.77498,-3.095409 2.06822,-6.00546 3.79726,-8.690214 0.50779,-0.637686 1.97092,-2.945836 2.58734,-3.32719 7.93752,-4.910633 14.07416,-9.019968 21.76817,-12.582417 2.91708,-1.424029 6.06459,-2.189412 9.11963,-3.256169 3.15556,-0.964106 6.39437,-1.682697 9.4132,-3.047786 2.93163,-1.001031 5.95143,-1.733741 9.01438,-2.203192 3.37999,-0.460299 6.74684,-1.114481 10.17761,-0.982034 3.76611,-0.110556 7.53296,-0.279369 11.26149,-0.862601 3.6549,-0.497409 7.31639,-0.693504 10.98945,-0.990624 3.27041,-0.464826 6.44654,-1.32002 9.68462,-1.950075 3.06749,-0.455453 6.11843,-0.699245 9.22446,-0.639894 2.9539,-0.123685 5.9009,-0.357294 8.82098,-0.837704 3.89388,-0.534872 7.78919,-0.565149 11.7161,-0.561443 0,0 -17.53007,12.736341 -17.53007,12.736341 z"
       inkscape:connector-curvature="0" />
    <path
       style="stroke-width:2.77086616;stroke-miterlimit:4;stroke-dasharray:none"
       id="path10266"
       d="m 230.45093,86.827708 c 66.42272,-37.942378 -12.03352,6.864973 4.43468,-2.566132 6.65898,-3.813507 13.28004,-7.695209 20.00048,-11.399328 5.76559,-3.177825 -22.77791,13.212049 -17.13555,9.820255 6.5172,-3.917684 13.17371,-7.598816 19.76056,-11.398224 -41.44502,23.873591 -2.73035,1.568588 2.55282,-1.456126 5.73926,-3.285832 -23.02287,13.023023 -17.19398,9.89895 8.81175,-4.722777 14.19826,-9.987816 22.74176,-12.223331 2.91146,-0.617038 5.89875,-0.644285 8.86155,-0.675953 2.58177,-0.09508 5.07119,-0.889425 7.65857,-1.169539 2.8057,-0.243195 5.62447,-0.253124 8.43855,-0.268673 2.77132,0.322247 5.32115,-0.299465 7.99564,-0.844596 2.72798,-0.28413 5.30713,-1.16785 8.01596,-1.602467 2.9212,-0.400121 5.87391,-0.440725 8.81719,-0.473998 2.93028,-0.0179 5.86064,-0.0063 8.79095,-0.0011 2.91838,0.61279 5.85699,1.054079 8.82904,1.286788 2.95123,0.280573 5.83009,1.034926 8.79006,1.36074 2.94363,0.361448 5.81132,1.126468 8.7723,1.461249 2.98337,0.04808 5.84611,0.881774 8.78561,1.308249 3.1647,0.394901 6.35939,0.420322 9.54382,0.451645 3.66666,0.01238 7.3333,0.0233 10.99997,0.03398 3.94358,-0.0091 7.88692,-0.03023 11.8305,-0.0117 3.78872,0.301254 7.47194,-0.601598 11.21273,-0.999596 3.98012,-0.245134 7.6708,-1.950433 11.4669,-3.036779 3.85916,-1.62563 7.81997,-2.905731 11.58708,-4.735436 3.45205,-1.602718 6.93001,-3.18208 10.27793,-4.996326 2.94677,-1.320208 5.90185,-2.580938 9.06765,-3.265222 3.36839,-0.396061 6.52724,-1.644356 9.78901,-2.493284 3.19528,-0.416751 6.2399,-1.445099 9.41596,-1.980002 2.93115,-0.232316 5.78009,-0.475319 8.5411,-1.542952 2.7226,-1.287501 5.8355,-1.079818 8.6233,-2.025416 2.49584,-0.873433 5.13508,-1.064126 7.75389,-1.197727 2.87716,-0.105272 5.75697,-0.09135 8.63555,-0.08833 3.23785,0.08414 6.49557,-0.195168 9.70338,0.292533 4.20828,0.529769 7.5618,2.070283 11.24527,4.044468 3.44868,1.977707 6.4946,4.546956 9.67914,6.9023 2.57643,1.544957 4.60872,3.611547 6.69177,5.731267 2.05381,2.014964 3.69576,4.408679 5.33124,6.763947 1.94038,1.848824 2.72297,4.249487 3.50683,6.722678 0.94057,2.764365 1.27539,5.668841 1.93875,8.501724 1.02038,3.310746 1.84875,6.654955 2.33735,10.085122 0.64641,3.00731 1.2533,6.009515 1.58657,9.06949 0.27102,2.94446 0.28932,5.90371 0.30642,8.85813 0.21226,3.1114 -0.26258,6.10416 -1.16383,9.06943 -0.76314,3.08799 -2.07098,5.92714 -3.58516,8.7025 -1.76406,3.26909 -3.57355,6.52469 -5.05841,9.93183 -1.39025,3.6484 -2.13593,7.4722 -2.98901,11.26497 -0.50624,2.55265 -1.59262,4.90939 -2.41357,7.35865 -0.51271,2.3213 -1.36821,4.53228 -1.83802,6.86309 -0.42708,2.31246 -1.26018,4.50595 -2.16953,6.66245 -0.98111,2.20606 -1.95082,4.4317 -3.24926,6.47364 -5.21427,8.86004 -16.45826,12.36488 -24.70524,17.14116 45.9755,-26.43278 -2.06233,1.18665 -2.38021,1.3652 -1.40796,0.7908 -3.9879,1.20256 -5.57163,1.60896 -3.43126,0.71817 -6.79221,1.60879 -10.0926,2.77146 -2.7471,0.92299 -5.64083,1.10068 -8.51267,1.21152 -2.90095,0.0728 -5.80324,0.0512 -8.7048,0.043 -2.86979,0.6497 -5.77812,1.03964 -8.70902,1.26228 -3.75739,0.28998 -7.46378,1.09664 -11.17076,1.77134 -3.95298,0.38572 -7.68216,1.35412 -11.33727,2.84588 -2.74461,0.84457 -5.40188,1.86075 -8.2349,2.39006 -3.15648,0.25879 -5.93533,1.62334 -8.72191,2.99169 -0.48748,0.19581 -0.9672,0.41219 -1.46245,0.58745 -1.71521,0.60697 -1.23187,0.24163 -2.86484,1.04095 -0.46857,0.22936 -1.81997,1.02086 -1.36735,0.76144 17.93216,-10.2781 22.56424,-13.26438 15.59343,-8.82038 -3.058,2.14375 -5.84107,4.6355 -8.66911,7.06468 -3.1672,2.38294 -5.80674,5.29505 -8.35251,8.30834 -2.61782,3.50308 -5.06226,7.13747 -7.31886,10.88335 -1.62013,2.73615 -2.74688,5.62871 -3.63056,8.66705 -0.97594,2.81422 -1.45185,5.73647 -1.70878,8.69212 -0.19446,2.8988 -0.18512,5.80605 -0.18719,8.70985 0.21473,3.01077 -0.33451,5.95455 -0.79501,8.91153 -0.53581,3.49542 -0.59728,7.03612 -0.67722,10.56407 -0.0456,3.66927 -0.0124,7.33891 0.006,11.00825 -0.01,3.41793 0.0108,6.83613 -0.0105,10.25404 0.0281,4.07309 -0.0305,8.14543 -0.0612,12.21829 -0.0186,4.83498 -0.16891,9.66349 0.39533,14.47224 0.50747,3.38742 0.88807,6.78721 1.02639,10.20975 0.12826,3.44702 0.11661,6.8962 0.11407,10.34479 -0.11523,2.75586 0.37632,5.45828 1.3405,8.0272 1.09701,1.72337 1.91892,3.60595 3.22848,5.18491 1.48912,1.66726 2.73321,3.53741 4.13814,5.27468 1.61545,1.81353 3.40538,3.44845 5.71539,4.27367 2.45911,1.28766 5.17672,1.69362 7.90377,1.93712 2.95729,0.68409 5.91352,1.22342 8.84472,2.0043 2.82957,0.73611 5.74961,0.91506 8.65796,1.02212 2.62816,0.10618 5.1576,0.91726 7.7793,1.22244 2.75092,0.25681 5.51673,0.26739 8.27718,0.28467 3.46965,0.0976 6.94685,-0.18903 10.39163,0.27863 4.02219,0.78876 8.08152,1.53962 12.0791,2.47347 3.74015,0.62934 7.33319,1.84119 11.05719,2.54143 3.377,0.24908 6.68132,0.82123 10.02039,1.36477 2.7535,0.4305 5.34572,1.41682 8.12048,1.80433 2.58211,0.008 4.98846,0.91693 7.51144,1.34022 2.70624,0.44506 5.46183,0.17036 8.14565,0.70497 2.91119,0.66686 5.88082,0.93552 8.85639,1.08442 3.73002,0.19535 7.47045,-0.0607 11.18053,0.38942 3.81769,0.58327 7.6657,0.89703 11.52138,1.07063 3.09311,0.11295 6.18881,0.10771 9.28348,0.10694 3.02124,-0.28496 5.90802,0.29924 8.86257,0.79944 2.86949,0.46488 5.7774,0.56499 8.67799,0.62888 2.91607,0.0435 5.83261,0.0331 8.74891,0.0295 2.92328,-0.005 5.84656,-0.007 8.76985,-0.008 2.92334,-9.6e-4 5.84668,-9.4e-4 8.77002,-9.6e-4 2.92323,1e-5 5.84647,4e-5 8.7697,6e-5 2.83905,-0.29209 5.50034,0.26175 8.25171,0.82434 2.75263,0.97211 5.49757,1.91361 7.71351,3.86237 1.72484,1.54955 3.36748,3.23143 4.86225,5.00849 1.44638,2.20919 3.30916,4.07593 4.96529,6.12058 1.83688,2.56373 3.32925,5.34239 4.85353,8.10197 2.0576,2.96037 3.76188,6.12609 5.70669,9.15864 2.62993,3.15979 5.02387,6.49397 7.47695,9.78853 2.09025,2.82132 4.58924,5.33196 6.49412,8.2843 1.3393,1.84366 3.16589,3.22587 4.70108,4.902 2.13781,1.65285 3.51988,3.9912 4.60117,6.42271 0.7313,2.70955 1.94112,5.22174 2.98328,7.81145 0.86575,2.37709 1.82908,4.66591 2.34043,7.15541 0.82211,2.71824 1.21391,5.52612 1.78338,8.29828 0.60772,3.00458 1.39395,5.96703 2.03569,8.96283 0.7352,3.60672 0.87432,7.29321 0.99934,10.96087 0.43996,5.27622 -0.32945,9.43959 -2.017,14.43879 -0.58074,1.32364 -1.13374,2.65981 -1.74223,3.97094 -2.45073,5.28068 -4.98333,10.46445 -7.10568,15.89666 -2.54646,6.51773 -2.4903,6.7557 -4.57046,13.44278 -3.16879,10.75838 -5.77232,21.66783 -8.68268,32.49482 -2.33274,7.24935 -4.93391,14.40844 -7.10024,21.71051 -1.04742,5.15331 -3.08297,9.98619 -4.80378,14.9261 -1.34269,4.01935 -2.87495,7.97021 -4.75811,11.76739 -1.56067,2.76368 -3.7087,5.12513 -5.68417,7.59178 -1.95671,2.52144 -3.84449,5.09407 -5.78596,7.62703 -2.27332,2.67496 -5.10997,4.71335 -8.01333,6.63619 -3.18802,1.88496 -6.05465,4.21508 -8.91481,6.54968 -3.13429,2.62958 -5.9841,5.57057 -9.04774,8.2823 -8.54954,7.02644 -19.01697,12.01488 -28.42195,17.44974 -0.53234,0.22595 -2.096,0.97018 -1.59702,0.67785 37.06365,-21.71404 4.5257,-1.55743 -8.20619,4.51945 -4.96666,3.08796 -10.53669,4.682 -16.10778,6.27828 -7.79756,1.98386 -15.68351,3.52793 -23.6759,4.45024 -5.20612,0.6705 -10.27994,1.88907 -15.14194,3.86588 -3.94966,2.18326 -8.36201,3.30348 -12.6388,4.66127 -3.76411,1.87433 -7.91329,2.54686 -11.87942,3.77601 -3.78654,0.67275 -7.44962,1.74843 -11.10702,2.9086 -3.23151,0.71378 -6.41775,1.58933 -9.65456,2.28081 -3.11346,0.31119 -6.13981,0.98344 -9.22678,1.46855 -3.38107,0.52315 -6.80044,0.6078 -10.21377,0.66287 -4.20129,0.71454 -8.45959,1.03011 -12.71227,1.23944 -4.37475,0.21916 -8.75578,0.2024 -13.13456,0.22685 -3.80573,0.009 -7.61149,0.009 -11.41724,0.0171 -3.8761,-0.004 -7.75208,-0.0174 -11.62814,-0.0378 -5.0514,-0.0432 -10.10283,-0.0118 -15.15427,-0.008 -4.58007,-0.56025 -9.15944,-1.02179 -13.7683,-1.25859 -6.19318,-0.251 -12.39268,-0.24556 -18.58979,-0.25938 -5.79311,0.0171 -11.58628,0.005 -17.37933,0.0383 -4.46853,0.0196 -8.93706,0.0271 -13.40559,0.0442 -3.85971,0.0229 -7.71948,0.002 -11.57919,-0.0107 -4.02297,0.007 -8.04587,0.0178 -12.06884,0.006 -4.32368,-0.0212 -8.64739,-0.0129 -12.97107,0.005 -3.89231,0.002 -7.78461,-0.004 -11.67692,0.005 -3.95879,-0.0123 -7.91755,-0.012 -11.87634,9.4e-4 -3.27806,0.008 -6.55614,0.0301 -9.83419,0.0121 -3.30457,-0.007 -6.60915,0.002 -9.91372,0.007 -3.32764,-0.009 -6.65526,-0.0108 -9.98294,-0.005 -4.09082,0.0264 -8.18112,-0.0491 -12.27175,-0.0738 -6.42114,-0.0413 -12.84265,-0.0401 -19.26383,-0.008 -5.21621,0.37515 -10.31597,-0.47643 -15.41567,-1.428 -2.25393,-0.86362 -4.75896,-0.98664 -7.03324,-1.74953 -2.64529,-0.88735 -5.17097,-2.41368 -7.68456,-3.61079 -4.74446,-2.24184 -8.99944,-5.05772 -12.82788,-8.62717 -4.85217,-3.97931 -8.81074,-8.85437 -13.06856,-13.42633 -5.24069,-5.74049 -10.36644,-11.58401 -15.50476,-17.41947 -5.22308,-6.46898 -11.15553,-12.27468 -17.41275,-17.72736 -7.47722,-6.43544 -14.224086,-13.5891 -20.894618,-20.83354 -3.804596,-4.4787 -7.919115,-8.95629 -10.699683,-14.18898 -1.74486,-3.28361 -2.107963,-4.94465 -3.275512,-8.51788 -2.494494,-7.75964 -2.025731,-16.13147 -4.606094,-23.85959 -0.403576,-1.2087 -0.97303,-2.35553 -1.459545,-3.5333 -2.696005,-5.45444 -7.205607,-9.07632 -12.210032,-12.26461 -3.462615,-1.78964 -6.781727,-3.80758 -10.18996,-5.69301 -2.506282,-1.42919 -4.727479,-3.29246 -7.478217,-4.23303 -2.521841,-0.31711 -4.933194,-0.96684 -7.409872,-1.51608 -2.677887,-1.07359 -5.40646,-2.02357 -8.059052,-3.15764 -3.202857,-0.8837 -5.020565,-3.16647 -6.368535,-6.05095 -1.320949,-3.48459 -1.544901,-7.25022 -1.737497,-10.93679 -0.134126,-3.43023 -0.08385,-6.86424 -0.08222,-10.29632 0.09149,-4.28328 0.05409,-8.56716 0.06413,-12.85099 -0.0261,-4.17285 0.01144,-8.34551 -0.006,-12.51838 -0.01371,-4.05471 -0.01033,-8.10961 0.0061,-12.16434 -0.130123,-3.58743 0.193903,-7.2082 -0.178276,-10.78262 -0.637582,-2.8969 -0.96685,-5.82404 -1.12384,-8.78238 -0.123797,-3.89665 -0.173843,-7.7951 -0.204968,-11.69343 -0.02032,-3.08811 -0.01976,-6.1763 -0.01967,-9.26445 7.09e-4,-2.91838 0.0016,-5.83676 0.002,-8.75514 0.005,-2.98141 -0.01282,-5.96287 0.01672,-8.94416 0.01395,-4.01903 0.05608,-8.03797 0.05508,-12.05704 -0.142384,-4.00291 0.571184,-7.95373 0.972528,-11.92086 0.186642,-3.66593 0.606751,-7.30015 1.373618,-10.89052 0.908019,-3.33201 3.33722,-5.86528 5.500837,-8.44694 2.60302,-2.98417 5.205901,-5.95304 7.468904,-9.20644 2.733673,-4.11708 5.468787,-8.24103 8.423226,-12.20302 3.867356,-5.15811 7.769042,-10.29676 11.342532,-15.66535 3.002268,-4.4905 5.524382,-9.21034 7.448975,-14.25135 1.985764,-5.47012 3.742943,-11.01681 5.709062,-16.49543 1.848982,-5.05796 3.685862,-10.13042 6.094406,-14.95298 2.255561,-4.52537 4.810309,-8.89254 7.301923,-13.28994 4.845895,-8.72407 8.978565,-17.79084 12.817583,-26.99407 4.385072,-11.1229 8.258599,-22.4509 13.275243,-33.313 2.65827,-6.20016 6.65488,-11.63897 10.01931,-17.43792 1.95952,-3.75312 2.60909,-7.9568 3.78939,-11.97394 0.92521,-3.14894 1.6313,-5.01151 2.72798,-8.11462 2.89728,-7.79936 7.36321,-14.8199 11.74403,-21.83954 3.71638,-6.03545 8.12919,-11.58092 12.22373,-17.3536 2.40168,-3.76304 5.50059,-6.92923 8.61702,-10.08643 2.88074,-2.6914 5.80977,-5.32935 8.67077,-8.0422 2.41634,-2.41092 4.71147,-4.89334 7.34108,-7.07673 7.24099,-5.5001 15.28788,-9.06031 23.19141,-13.99028 5.67139,-3.53763 -11.57579,6.68734 -17.37923,10.0039 -0.36925,0.21101 0.71692,-0.45772 1.07538,-0.68658 2.13873,-1.29419 4.13213,-2.81694 6.14395,-4.30027 2.02891,-1.44285 4.0227,-2.95141 5.79593,-4.70564 2.01209,-1.71164 4.17622,-3.22 6.11574,-5.02353 6.43928,-5.14153 15.94743,-9.464093 21.72183,-12.793293 5.8125,-3.351172 -11.6293,6.694983 -17.45733,10.019093 -1.34204,0.76546 1.05355,-0.66277 2.19807,-1.34714 53.58757,-30.891798 1.60284,-0.9881 2.43087,-1.43502 6.69798,-3.615145 13.21674,-7.552936 19.82428,-11.330858 0.44447,-0.254133 1.77597,-1.019896 1.33176,-0.765299 -17.63943,10.109977 -22.63689,13.725737 -16.07289,9.05206 8.42115,-5.429204 16.91411,-10.973026 26.3344,-14.431545 -0.91905,0.350256 3.1778,-1.787065 2.38859,-1.33106 -58.33856,33.708142 44.44849,-25.719043 -14.56315,8.20292 7.04098,-4.624789 4.05885,-2.694457 20.53802,-11.752634 0.35139,-0.193152 0.79593,-0.134953 1.17013,-0.279019 0.34052,-0.131099 1.27002,-0.719238 0.9531,-0.53841 -5.86123,3.344213 -23.24666,13.702103 -17.58601,10.028572 6.33358,-4.11024 13.07186,-7.56042 19.60779,-11.340629 -2.0732,1.683978 7.25296,-3.794867 4.8377,-2.42308 -17.00111,9.65605 -22.75013,13.961145 -16.1204,9.077251 0.46934,-0.373537 0.93868,-0.747075 1.40801,-1.120612 0,0 20.01237,-8.006979 20.01237,-8.006979 l 0,0 c -0.45831,0.352898 -0.91662,0.705795 -1.37493,1.058692 -7.38877,6.676865 -16.86276,10.443203 -25.59991,15.046823 39.82143,-23.04229 5.49723,-3.1518 -2.17826,1.162369 -0.65696,0.369261 -2.74544,1.230487 -2.09526,0.849399 5.84551,-3.426229 11.73116,-6.783512 17.59116,-10.184892 0.31602,-0.183432 -0.63936,0.35396 -0.95904,0.530939 -64.91492,37.834442 12.10296,-7.021203 -2.97615,1.81174 -6.51266,3.814946 -13.0285,7.624574 -19.56038,11.406526 -0.9042,0.523529 -1.51929,0.746278 -2.4857,1.154386 -0.91703,0.390271 -1.84559,0.754136 -2.75322,1.165809 -0.42732,0.19382 -1.66936,0.855638 -1.26464,0.618205 30.28324,-17.766219 21.3609,-12.134089 14.79494,-8.630364 -7.40999,5.106563 -1.51087,1.081898 -20.85754,12.437 -0.44851,0.26324 -1.82596,0.99602 -1.37669,0.73407 5.72708,-3.33908 22.97226,-13.245749 17.211,-9.966015 -6.2075,3.533759 -43.30324,25.084585 -2.43297,1.358359 -6.79332,4.560495 -16.4561,9.633146 -21.79542,12.725816 -5.79163,3.35467 11.57041,-6.73147 17.36312,-10.084252 0.70144,-0.40599 -2.65825,1.641548 -2.12097,1.188766 -2.08379,1.619936 -3.79102,3.712916 -6.18358,4.940536 -1.88275,1.66765 -3.58647,3.52799 -5.62435,5.01976 -2.17304,1.30606 -4.11827,2.88456 -6.12231,4.41976 -7.80761,4.25387 0.0114,-0.0205 -20.72974,12.05681 -5.74773,3.34682 11.47612,-6.72687 17.23099,-10.0614 3.05535,-1.77035 -6.56925,4.04362 -3.47287,2.57264 -3.04391,1.61515 -5.18349,4.37126 -7.58405,6.77889 -2.83579,2.73467 -5.70872,5.43012 -8.66642,8.03328 -3.26706,2.98351 -6.39366,6.17222 -8.94659,9.80065 -4.1778,5.77045 -8.64444,11.32143 -12.49114,17.32539 -4.35487,6.94121 -8.91782,13.80932 -11.98569,21.45001 -1.16959,3.23637 -1.72721,4.614 -2.68103,7.89307 -1.19582,4.11098 -1.70624,8.40466 -3.38921,12.37363 -3.19152,5.98429 -7.6636,11.22442 -10.41052,17.48143 -5.44016,10.77507 -9.51752,22.15125 -13.82094,33.41249 -3.56876,9.11983 -7.31174,18.17077 -11.911351,26.82888 -2.27299,4.48599 -5.068316,8.70188 -7.231541,13.24687 -2.621404,4.66796 -4.474612,9.70706 -6.305053,14.72697 -2.023162,5.45262 -3.802469,10.97328 -5.658564,16.48184 -1.861938,5.20049 -4.193915,10.13508 -7.333778,14.7097 -3.431695,5.50317 -7.525283,10.55758 -11.280531,15.83538 -3.027614,3.78677 -5.587288,7.95392 -8.25665,11.99988 -2.222894,3.29132 -4.537287,6.54457 -7.412427,9.29866 -1.8223,2.63385 -4.322777,4.76879 -5.822306,7.63518 -1.006578,3.44327 -1.409537,7.03972 -1.536487,10.61722 -0.381696,3.92558 -1.174022,7.82352 -1.145858,11.77013 -9.86e-4,4.00034 0.0411,8.00055 0.05517,12.00084 0.02984,2.97573 0.01173,5.95163 0.01653,8.92747 -1.13e-4,2.91942 -6.5e-5,5.83883 -0.0042,8.75824 -0.0055,3.09466 -0.01619,6.18929 -0.03272,9.28391 -0.01472,3.86465 -0.04354,7.73223 0.143322,11.59362 0.173834,2.90357 0.463186,5.78781 1.120838,8.6281 0.494821,3.66332 0.02742,7.39096 0.171485,11.07812 0.01661,4.05259 0.02006,8.10536 0.0065,12.15794 -0.01739,4.17619 0.02034,8.35219 -0.01036,12.52836 0.0041,4.27102 -0.04174,8.54199 0.02274,12.81279 -0.02012,3.40423 -0.02971,6.80872 0.03115,10.21262 0.108784,3.41387 0.209475,6.90987 1.37059,10.15881 1.188596,2.49976 2.810444,3.90826 5.518684,4.67836 2.626093,0.99328 5.209337,2.13016 7.928039,2.85013 2.526307,0.63136 5.124055,0.93134 7.581976,1.80256 2.673656,1.24092 4.985418,3.07086 7.571122,4.47973 3.423869,1.88887 6.660395,4.08332 10.10518,5.93852 5.256947,3.52487 9.834346,7.70294 12.622137,13.51882 1.511756,3.79221 1.77907,4.002 2.638322,8.11901 1.345482,6.44673 1.30328,13.15074 3.364506,19.46311 1.080385,3.18883 1.575991,5.093 3.128283,8.04384 2.696414,5.12577 6.691394,9.50932 10.345074,13.94369 6.56229,7.27559 13.41179,14.22965 20.94181,20.52145 6.32096,5.50726 12.18231,11.48535 17.46308,18.00791 5.20908,5.77857 10.43473,11.53996 15.73764,17.23009 4.19859,4.55391 8.15392,9.35821 13.03181,13.22645 3.77236,3.29491 7.97475,5.92524 12.48598,8.11288 4.64041,2.21781 9.35112,3.97496 14.44436,4.86226 5.00449,0.89099 10.02978,1.36249 15.12117,1.16517 6.42887,0.0322 12.85806,0.0324 19.28689,-0.008 4.15835,-0.0247 8.3164,-0.0995 12.47493,-0.0738 3.33249,0.006 6.66492,0.004 9.99737,-0.005 3.29822,0.005 6.59644,0.0144 9.89466,0.007 3.26697,-0.0177 6.53396,0.003 9.80094,0.0121 3.95793,0.0131 7.91582,0.0131 11.87375,9.4e-4 3.88768,0.009 7.77537,0.003 11.66306,0.005 4.3187,0.0185 8.63744,0.0265 12.95615,0.005 4.01775,-0.0121 8.03543,-0.002 12.05318,0.006 3.86965,-0.0131 7.73936,-0.0334 11.609,-0.0112 4.43139,0.016 8.86279,0.0213 13.29418,0.0355 5.76345,0.0266 11.52691,8.8e-4 17.29036,0.0352 6.24542,0.0203 12.49315,0.0463 18.73481,0.28255 4.60035,0.23699 9.15976,0.8241 13.75188,1.13476 5.0583,0.004 10.11659,0.0353 15.17487,-0.007 3.90792,-0.0195 7.81573,-0.0323 11.7237,-0.0293 3.78166,0.0156 7.56329,0.0289 11.34499,0.0229 4.34459,-0.008 8.69072,-0.0583 13.02976,-0.2963 4.29754,-0.29383 8.56251,-0.84063 12.8469,-1.24729 3.36013,-0.11149 6.72327,-0.31741 10.03705,-0.9183 3.05903,-0.56118 6.13431,-0.98538 9.18347,-1.59121 3.16712,-0.78148 6.37336,-1.40363 9.49293,-2.36468 3.68348,-1.13085 7.4443,-1.9262 11.17463,-2.87915 3.99084,-0.99733 7.87631,-2.26909 11.7175,-3.74683 4.28724,-1.36505 8.52639,-2.84512 12.603,-4.76239 4.96144,-1.66955 10.0466,-2.81674 15.26581,-3.32553 7.89755,-0.97438 15.71085,-2.48906 23.36831,-4.67672 5.61604,-1.76432 11.08619,-3.77515 16.16316,-6.80637 0.62169,-0.33635 1.24047,-0.67814 1.86507,-1.00906 0.58935,-0.31225 2.35095,-1.25947 1.77664,-0.92036 -36.53916,21.57506 -4.83595,2.37755 6.15115,-3.38255 -32.91308,19.09119 -15.0574,9.35489 -8.22424,4.14523 3.16798,-2.57652 5.98607,-5.52308 8.97808,-8.28538 2.83722,-2.37256 5.61025,-4.89004 8.82046,-6.73848 2.80748,-1.92358 5.77092,-3.57652 8.13295,-6.07227 2.2431,-2.27277 3.85772,-5.07369 5.89937,-7.52576 1.84143,-2.53394 3.87748,-4.84589 5.84217,-7.27712 2.07843,-3.65262 3.66215,-7.52382 5.03221,-11.4947 1.57943,-5.01523 3.98672,-9.74875 5.00122,-14.94908 2.20577,-7.34313 4.8068,-14.54887 7.33721,-21.78411 3.18228,-10.88873 5.90809,-21.90814 9.1684,-32.77674 3.38721,-11.32934 7.45931,-22.40713 12.65915,-33.03987 1.64659,-4.62013 2.58473,-8.6775 2.06924,-13.60541 -0.0695,-3.54416 -0.17077,-7.10513 -0.83383,-10.59803 -0.64332,-2.98711 -1.48557,-5.92174 -2.0615,-8.92508 -0.67126,-2.76637 -0.88115,-5.639 -1.85737,-8.33893 -0.41602,-2.38301 -1.34359,-4.53694 -2.13952,-6.80497 -0.99139,-2.57975 -2.25087,-5.05271 -2.93248,-7.74847 -0.96389,-2.2531 -2.34001,-4.20844 -4.25947,-5.75802 -1.66957,-1.71382 -3.56742,-3.24237 -4.8615,-5.2824 -1.84067,-2.92661 -4.27604,-5.43032 -6.33033,-8.20457 -2.46488,-3.33852 -4.84709,-6.73461 -7.52509,-9.91151 -2.01659,-3.04859 -3.77374,-6.24744 -5.84695,-9.25896 -1.45733,-2.64155 -2.95664,-5.26534 -4.6887,-7.73596 -1.68491,-2.00657 -3.5116,-3.88599 -5.01696,-6.03748 -1.45237,-1.64904 -2.94425,-3.2912 -4.62333,-4.71088 -2.08724,-1.551 -4.64387,-2.34044 -7.14099,-2.97677 -2.63977,-0.52716 -5.27274,-0.60019 -7.96388,-0.49951 -2.92322,-2e-5 -5.84644,-7e-5 -8.76966,-10e-6 -2.92313,1.2e-4 -5.84625,2.6e-4 -8.76938,0.002 -2.92325,0.002 -5.84649,0.005 -8.76974,0.008 -2.92998,-7e-5 -5.86076,0.006 -8.78965,-0.0858 -2.96223,-0.12136 -5.92314,-0.33125 -8.84374,-0.8678 -2.87611,-0.47718 -5.73993,-0.62975 -8.65741,-0.51115 -3.10326,-0.0154 -6.20824,-0.0424 -9.3066,-0.23521 -3.84976,-0.26437 -7.68071,-0.70172 -11.51175,-1.15943 -3.7342,-0.1974 -7.47803,-0.0487 -11.21192,-0.29355 -3.023,-0.21081 -6.00709,-0.66503 -8.98871,-1.20075 -2.75064,-0.20851 -5.52785,-0.20524 -8.2413,-0.76788 -2.48213,-0.52863 -4.93521,-1.11978 -7.47546,-1.31412 -2.70695,-0.54258 -5.30838,-1.50477 -8.05737,-1.84073 -3.35005,-0.57877 -6.72589,-0.85805 -10.07278,-1.43548 -3.66551,-0.84873 -7.27,-1.94747 -10.97935,-2.61106 -3.9841,-0.7911 -7.94238,-1.7918 -11.9823,-2.22798 -3.44856,-0.17052 -6.90405,-0.0378 -10.35603,-0.0839 -2.82536,-0.0429 -5.65956,-0.095 -8.46235,-0.4897 -2.54396,-0.40615 -5.04694,-1.12098 -7.64309,-1.09213 -3.00404,-0.20121 -5.99702,-0.55677 -8.90168,-1.38673 -2.86185,-0.72873 -5.78056,-1.23586 -8.68607,-1.75281 -2.88356,-0.41938 -5.68251,-1.13359 -8.30362,-2.44579 -2.44212,-1.25623 -4.48421,-3.09192 -6.28227,-5.15997 -1.37309,-1.76897 -2.72878,-3.54422 -4.17045,-5.25762 -1.37462,-1.80764 -2.39151,-3.82508 -3.53551,-5.78072 -1.05777,-2.80563 -1.71163,-5.75163 -1.59378,-8.77243 -0.005,-3.41802 -0.007,-6.837 -0.0957,-10.25401 -0.14575,-3.38193 -0.39625,-6.75608 -0.87536,-10.10945 -0.56124,-4.90058 -0.44921,-9.80113 -0.43692,-14.72928 -0.0308,-4.05155 -0.0893,-8.10256 -0.0629,-12.15434 -0.0234,-3.41145 -0.006,-6.82317 -0.0245,-10.23463 0.0113,-3.6928 0.0326,-7.38555 0.0606,-11.07826 0.0191,-3.59038 0.0236,-7.19604 0.43968,-10.76658 0.40548,-2.87329 1.16332,-5.70166 0.9347,-8.62488 -0.004,-2.95174 -0.019,-5.90535 0.11722,-8.85476 0.19258,-3.09179 0.53262,-6.18272 1.51498,-9.13913 0.95561,-2.91655 1.30969,-4.65191 2.74891,-7.46405 0.27796,-0.54312 0.49475,-1.11542 0.74212,-1.67314 2.17512,-3.90761 4.82092,-7.51122 7.29235,-11.233 1.65272,-2.14583 3.38348,-4.60376 5.39574,-6.43805 0.42908,-0.39113 0.97673,-0.63558 1.41215,-1.01964 0.43768,-0.38605 0.79652,-0.85319 1.19478,-1.27978 3.12152,-2.03914 5.59139,-4.98462 8.65514,-7.13597 8.21488,-6.32497 17.47061,-11.10065 27.04235,-14.92014 2.88538,-1.31676 5.91987,-2.112 9.04411,-2.64243 2.71868,-0.73178 5.3767,-1.68552 8.0327,-2.61489 3.70344,-1.30006 7.58448,-1.78946 11.43964,-2.44574 3.78189,-0.73686 7.5871,-1.42529 11.43305,-1.71622 2.95115,-0.32631 5.86329,-0.97292 8.83143,-1.09899 2.87835,0.001 5.75976,0.0172 8.6342,-0.15551 2.77857,-0.22643 5.5246,-0.65656 8.14617,-1.65116 3.33215,-1.06564 6.77898,-1.72115 10.1442,-2.67518 1.40941,-0.43211 2.85373,-0.81294 4.19459,-1.43775 0.38443,-0.17914 1.49432,-0.80239 1.12793,-0.58877 -5.23257,3.05074 -44.34568,25.64888 2.35405,-1.34125 -38.59686,22.57685 -18.02221,11.78026 -13.60549,7.40024 0.53945,-0.53496 1.26656,-1.55183 1.72456,-2.16432 1.72389,-3.47799 -0.42478,0.59913 1.37548,-2.14789 0.81854,-1.24901 0.92161,-2.86896 1.96618,-3.99875 0.70488,-2.14347 1.79653,-4.10056 2.37256,-6.29916 0.33062,-2.45029 1.11098,-4.71173 1.72278,-7.07479 0.61006,-2.56269 1.916,-4.80809 2.50827,-7.37732 1.21237,-3.7578 1.58949,-7.77527 2.95955,-11.50579 1.23639,-3.53979 3.13141,-6.8141 4.88852,-10.11707 1.38032,-2.73412 3.10785,-5.28242 3.72387,-8.34491 0.91148,-2.77537 1.75076,-5.48777 1.44541,-8.46109 -0.007,-2.89356 -0.006,-5.79055 -0.20956,-8.67852 -0.26892,-3.04951 -0.79572,-6.05161 -1.53068,-9.02476 -0.3909,-3.370037 -1.09977,-6.676075 -2.25382,-9.874569 -0.66642,-2.771322 -1.02861,-5.595345 -1.88048,-8.319188 -0.7855,-2.275451 -1.37979,-4.454605 -3.19848,-6.188433 -1.56271,-2.270132 -3.13795,-4.563335 -5.15174,-6.464312 -1.96482,-2.081624 -4.08626,-3.886142 -6.47137,-5.485519 -3.00433,-2.384159 -6.0015,-4.819287 -9.38503,-6.657117 -3.41503,-1.762828 -7.01017,-2.978314 -10.86616,-3.313433 -3.20033,-0.172245 -6.4061,-0.04812 -9.60989,-0.07909 -2.85295,0.0089 -5.71021,0.0074 -8.5564,0.22923 -2.56498,0.257534 -5.06972,0.757142 -7.54253,1.493053 -2.89735,0.475305 -5.75385,1.077969 -8.5181,2.097161 -2.87182,0.680675 -5.7874,0.872493 -8.69182,1.362998 -3.09636,0.675125 -6.18158,1.399791 -9.27456,2.084577 -3.253,0.945634 -6.51304,1.832123 -9.83817,2.494543 -3.01217,0.929751 -5.91768,2.195507 -8.73337,3.608519 -3.40536,1.667884 -6.80904,3.341659 -10.27784,4.875216 -3.83581,1.677312 -7.79293,3.087038 -11.73895,4.480327 -3.8508,1.237087 -7.69303,2.594156 -11.77301,2.798285 -3.76272,0.509958 -7.51667,0.98264 -11.3269,0.762842 -3.93888,0.02034 -7.8776,0.0043 -11.81652,0.0033 -3.69902,0.0174 -7.39859,0.05467 -11.09732,-0.0082 -3.25937,-0.07187 -6.53375,-0.134372 -9.75639,-0.677567 -2.90933,-0.50586 -5.7991,-1.077834 -8.75375,-1.260959 -2.93137,-0.444888 -5.80895,-1.190215 -8.76702,-1.453471 -2.91943,-0.426212 -5.79504,-1.14456 -8.74924,-1.301274 -2.91397,-0.321433 -5.78762,-0.947172 -8.71313,-1.123577 -2.92149,-0.0043 -5.84334,-0.01658 -8.76449,0.03732 -2.88104,0.07798 -5.77351,0.195774 -8.6077,0.764148 -2.675,0.572448 -5.32107,1.254263 -8.03189,1.650164 -2.71704,0.535245 -5.43816,0.53495 -8.20251,0.494779 -2.77324,0.04597 -5.55557,0.101605 -8.30509,0.502266 -2.58268,0.421739 -5.13254,1.101572 -7.77507,0.95358 -2.85909,0.09723 -5.75111,0.237709 -8.48133,1.177765 -0.90159,0.35361 -3.49491,1.659579 -2.65945,1.169776 5.7053,-3.344842 22.94781,-13.159782 17.17205,-9.938135 -6.65575,3.712497 -13.13943,7.72924 -19.81232,11.410843 -0.8558,0.472163 51.24895,-29.679104 -2.53273,1.477563 43.97841,-25.450302 -0.2942,0.184931 -2.63965,1.476836 -5.72,3.150663 11.29645,-6.555199 16.94328,-9.835192 0.50514,-0.293412 -1.01283,0.582405 -1.51818,0.875445 -6.64838,3.855199 -13.30951,7.688525 -19.94301,11.569267 -5.70804,3.339329 11.4444,-6.630008 17.16661,-9.945012 0,0 -20.25593,7.814641 -20.25593,7.814641 z"
       inkscape:connector-curvature="0" />
  </g>
</svg>
